<?xml version="1.0" encoding="utf-8"?>
<!-- Generator: Adobe Illustrator 26.2.1, SVG Export Plug-In . SVG Version: 6.00 Build 0)  -->
<svg version="1.1" id="图层_1" xmlns="http://www.w3.org/2000/svg" xmlns:xlink="http://www.w3.org/1999/xlink" x="0px" y="0px"
	 viewBox="0 0 340.5 84.2" style="enable-background:new 0 0 340.5 84.2;" xml:space="preserve">
<style type="text/css">
	.st0{fill:#4863AC;}
</style>
<g id="图层_2_00000076580288464657610030000009716414211061230220_">
	<g id="图层_1-2">
		<path class="st0" d="M67.6,8.1v19l-13.3,7.2v-33C39.4-3.2,23.2,0.9,12.2,12h32.2v10.2H30.2v25.3l-11.6,6.3V22.3H4.7
			c-9.8,19-3.8,42.4,13.9,54.3v-19l11.6-6.3V82c22.4,6.5,45.7-6.2,52.3-28.5C87.4,36.7,81.5,18.7,67.6,8.1z M42.1,76.9V65.1
			c7.6,0.3,12.5-4.6,12.2-14.5V38.2L67.6,31v19.4C68.4,68.8,59.3,77.7,42.1,76.9z"/>
	</g>
</g>
</svg>
