<?xml version="1.0" encoding="utf-8"?>
<!-- Generator: Adobe Illustrator 26.0.2, SVG Export Plug-In . SVG Version: 6.00 Build 0)  -->
<svg version="1.1" id="_Ebene_" xmlns="http://www.w3.org/2000/svg" xmlns:xlink="http://www.w3.org/1999/xlink" x="0px" y="0px"
	 viewBox="0 0 576 144" style="enable-background:new 0 0 576 144;" xml:space="preserve">
<style type="text/css">
	.st0{fill:#FFFFFF;}
</style>
<g>
	<g>
		<path class="st0" d="M551.9,82.8c4.4,4.4,11.4,4.4,15.8,0c4.4-4.4,4.4-11.4,0-15.8s-11.4-4.4-15.8,0c-2.1,2.1-3.3,4.9-3.3,7.9
			C548.6,77.9,549.8,80.7,551.9,82.8"/>
		<path class="st0" d="M533.1,101.6c3.4,3.4,8.8,3.4,12.2,0c3.4-3.4,3.4-8.8,0-12.2c-3.4-3.4-8.8-3.4-12.2,0
			c-1.6,1.6-2.5,3.8-2.5,6.1C530.6,97.8,531.5,100,533.1,101.6"/>
		<path class="st0" d="M533.2,60.4c3.4,3.4,8.8,3.4,12.2,0c3.4-3.4,3.4-8.8,0-12.2c-3.4-3.4-8.8-3.4-12.2,0
			c-1.6,1.6-2.5,3.8-2.5,6.1C530.6,56.6,531.5,58.8,533.2,60.4"/>
		<path class="st0" d="M514,120.8c2.6,2.6,6.8,2.6,9.4,0c2.6-2.6,2.6-6.8,0-9.4c-2.6-2.6-6.8-2.6-9.4,0c-1.2,1.2-1.9,2.9-1.9,4.7
			C512,117.8,512.7,119.5,514,120.8"/>
		<path class="st0" d="M514,79.6c2.6,2.6,6.8,2.6,9.4,0s2.6-6.8,0-9.4c-2.6-2.6-6.8-2.6-9.4,0c-1.2,1.2-1.9,2.9-1.9,4.7
			C512,76.7,512.7,78.4,514,79.6"/>
		<path class="st0" d="M514,38.5c2.6,2.6,6.8,2.6,9.4,0c2.6-2.6,2.6-6.8,0-9.4s-6.8-2.6-9.4,0c-1.2,1.2-1.9,2.9-1.9,4.7
			C512.1,35.5,512.8,37.2,514,38.5"/>
		<path class="st0" d="M494.5,99.1c2,2,5.2,2,7.2,0c2-2,2-5.2,0-7.2c-2-2-5.2-2-7.2,0c-1,1-1.5,2.2-1.5,3.6
			C493,96.9,493.5,98.2,494.5,99.1"/>
		<path class="st0" d="M494.5,58c2,2,5.2,2,7.2,0c2-2,2-5.2,0-7.2c-2-2-5.2-2-7.2,0c-1,1-1.5,2.2-1.5,3.6
			C493,55.7,493.5,57,494.5,58"/>
		<path class="st0" d="M474.7,77.7c1.5,1.5,4,1.5,5.5,0c1.5-1.5,1.5-4,0-5.5c-1.5-1.5-4-1.5-5.5,0c-0.7,0.7-1.1,1.7-1.1,2.8
			C473.6,76,474,77,474.7,77.7"/>
	</g>
	<g>
		<path class="st0" d="M145.6,54.6v-9.7c4.7,1.6,9.6,2.5,14.6,2.6c5.8,0,8.8-1.5,8.8-4.6c0-1.1-0.4-2.2-1.3-2.9
			c-0.9-0.8-3.1-2-6.7-3.5c-6.4-2.6-10.6-4.9-12.6-6.8c-2.5-2.4-3.9-5.8-3.8-9.3c0-4.8,1.8-8.5,5.5-11c3.6-2.5,8.4-3.8,14.2-3.8
			c4.7,0.2,9.4,0.8,14,1.8v9.3c-4-1.7-8.3-2.6-12.6-2.7c-5.5,0-8.2,1.5-8.2,4.5c0,1.2,0.7,2.2,1.7,2.8c0.9,0.6,3.5,1.8,7.6,3.7
			c6,2.6,9.9,5,11.9,6.9c2.4,2.4,3.7,5.7,3.5,9c0.2,5-2.5,9.7-6.9,12.1c-3.7,2.3-8.6,3.4-14.5,3.4C155.6,56.4,150.5,55.8,145.6,54.6
			"/>
		<path class="st0" d="M189.9,55.4h13.7V6.5h-13.7V55.4z"/>
		<polygon class="st0" points="216.1,6.5 216.1,55.4 251.7,55.4 251.7,46 229.2,46 229.2,34.4 248.3,34.4 248.3,26.4 229.2,26.4 
			229.2,15.3 251.1,15.3 251.1,6.5 		"/>
		<polygon class="st0" points="303.2,6.5 290.6,37.7 278.3,6.5 260.6,6.5 260.6,55.4 270.2,55.4 270.2,20.8 284.3,55.9 292.8,55.9 
			307.1,20.8 307.1,55.4 320.1,55.4 320.1,6.5 		"/>
		<polygon class="st0" points="332.6,6.5 332.6,55.4 368.2,55.4 368.2,46 345.8,46 345.8,34.4 364.8,34.4 364.8,26.4 345.8,26.4 
			345.8,15.3 367.6,15.3 367.6,6.5 		"/>
		<polygon class="st0" points="409.8,6.5 409.8,39.2 393,6.5 377.2,6.5 377.2,55.4 386.8,55.4 386.8,22.2 404.1,55.4 419.4,55.4 
			419.4,6.5 		"/>
		<path class="st0" d="M429.1,54.6v-9.7c4.7,1.6,9.6,2.5,14.6,2.6c5.8,0,8.8-1.5,8.8-4.6c0-1.1-0.4-2.2-1.2-2.9
			c-0.9-0.8-3.1-2-6.7-3.5c-6.4-2.6-10.6-4.9-12.6-6.8c-2.5-2.4-3.9-5.8-3.8-9.4c0-4.8,1.8-8.5,5.5-11c3.6-2.5,8.4-3.8,14.2-3.8
			c4.3,0.1,8.6,0.6,12.8,1.6l1.2,0.2v9.3c-4-1.7-8.3-2.6-12.7-2.7c-5.5,0-8.2,1.5-8.2,4.5c0,1.2,0.6,2.2,1.6,2.8
			c0.9,0.5,3.4,1.8,7.6,3.7c5.9,2.6,9.9,5,11.9,6.9c2.4,2.4,3.7,5.7,3.5,9c0.2,5-2.5,9.7-6.9,12.1c-3.8,2.3-8.6,3.4-14.5,3.4
			C439.2,56.4,434.1,55.8,429.1,54.6"/>
	</g>
	<g>
		<path class="st0" d="M343.3,105.5c0,5.8-7.8,7.2-13.3,7.3c0.2-5.8,3.3-11.5,9-11.5c2.2-0.2,4.1,1.4,4.3,3.6
			C343.3,105.1,343.3,105.3,343.3,105.5 M353.6,105.4c0-8-5.5-12.3-14-12.3c-13.8,0-21,11.3-21,23.7c0,12.6,5.7,21.6,20.1,21.6
			c5.5,0.1,10.9-1.6,15.4-4.7l-3.4-7.8c-3.1,2.2-6.7,3.5-10.5,3.6c-6.4,0-9.1-4.3-9.7-8.3C340.7,120.6,353.6,118.1,353.6,105.4"/>
		<path class="st0" d="M384.2,105.5c0,5.8-7.8,7.2-13.3,7.3c0.2-5.8,3.3-11.5,9-11.5c2.2-0.2,4.1,1.4,4.3,3.6
			C384.2,105.1,384.2,105.3,384.2,105.5 M394.5,105.4c0-8-5.5-12.3-14-12.3c-13.8,0-21,11.3-21,23.7c0,12.6,5.7,21.6,20.1,21.6
			c5.5,0.1,10.9-1.6,15.4-4.7l-3.4-7.8c-3.1,2.2-6.7,3.5-10.5,3.6c-6.4,0-9.1-4.3-9.7-8.3C381.6,120.6,394.5,118.1,394.5,105.4"/>
		<path class="st0" d="M80,105.5c0,5.8-7.8,7.2-13.3,7.3c0.2-5.8,3.3-11.5,9-11.5c2.2-0.2,4.1,1.4,4.3,3.6
			C80,105.1,80,105.3,80,105.5 M90.3,105.4c0-8-5.5-12.3-14-12.3c-13.8,0-21,11.3-21,23.7c0,12.6,5.7,21.6,20.1,21.6
			c5.5,0.1,10.9-1.6,15.4-4.7l-3.4-7.8c-3.1,2.2-6.7,3.5-10.5,3.6c-6.4,0-9.1-4.3-9.7-8.3C77.4,120.6,90.3,118.1,90.3,105.4"/>
		<polygon class="st0" points="34.3,81 34.3,103.4 17.1,103.4 17.1,81 5,81 5,137.1 17.1,137.1 17.1,113.9 34.3,113.9 34.3,137.1 
			46.3,137.1 46.3,81 		"/>
		<path class="st0" d="M123.3,123.4c0,3.1-2.5,6.3-6.9,6.3c-6.2,0-7.7-6-7.7-12.8c0-8.3,2.4-15.2,9.3-15.2c1.8,0,3.6,0.3,5.3,0.9
			V123.4z M135.8,137.1l-0.8-8.5V96.2c-5-1.9-10.2-2.9-15.5-3.1c-14.9,0-22.3,9.7-22.3,24.5c0,11.4,4.1,20.7,16.4,20.7
			c4.6,0,8.8-1.7,11.3-5.6l0.4,0.1l0.6,4.3L135.8,137.1z"/>
		<path class="st0" d="M145.5,81.1v43.2c0,7.1,0.7,14,12.8,14c3.7,0,7.4-0.9,10.7-2.7l-2.5-7.8c-1.6,0.8-3.4,1.2-5.1,1.4
			c-3.1,0-4.1-1.9-4.1-6.5V81.1H145.5z"/>
		<path class="st0" d="M218.6,137.1v-27.6c-0.1-4,2.9-7.3,6.9-7.4c0.1,0,0.2,0,0.3,0c4.5,0,5.4,3.4,5.4,7.8v27.2h11.7v-29
			c0-10-4.8-15-13.7-15c-4-0.1-7.8,1.5-10.6,4.4V81h-11.7v56.1H218.6z"/>
		<path class="st0" d="M253.3,137.1H265V94.3h-11.7V137.1z"/>
		<path class="st0" d="M252.7,81c-0.1,1.6,0.6,3.2,1.7,4.3c1.3,1.1,2.9,1.8,4.6,1.7c1.7,0.1,3.4-0.5,4.6-1.7c2.4-2.3,2.4-6.2,0-8.6
			c0,0,0,0,0,0c-1.3-1.2-2.9-1.8-4.6-1.8c-1.7,0-3.4,0.6-4.6,1.8C253.4,77.9,252.7,79.4,252.7,81"/>
		<path class="st0" d="M287.1,137.1v-27.4c-0.2-4,3-7.4,7-7.6c0.1,0,0.2,0,0.3,0c4.5,0,5.2,3.5,5.2,8.1v26.9h11.7v-29.2
			c0-10.1-5.1-14.8-13.4-14.8c-5-0.2-9.8,2.2-12.7,6.3l-0.8-5.1h-9.8l0.8,7.9v34.8L287.1,137.1z"/>
		<path class="st0" d="M415.3,110.5c0.2-4.5,2.9-7.3,7.1-7.3c2.1,0,4.1,0.5,6,1.5l2.1-10.1c-2.2-1.1-4.6-1.6-7-1.5
			c-4,0-8.1,2.4-10.1,7.3l-1.1-6.1h-9.5l0.8,7.4v35.3h11.7L415.3,110.5z"/>
		<path class="st0" d="M462.8,96.8L462.8,96.8c-4.1-2.8-9-4-13.9-3.7c-8.7,0.5-15.5,5.6-15,14.5s7,11,13.4,12.6
			c3.7,0.9,6.8,1.6,6.9,4.9c0.2,3.2-2,4.6-5.2,4.7c-3.8,0.2-8.6-1.5-11.7-3.1l-3.5,8c2.5,1.6,8.8,4,16.3,3.6
			c9.8-0.5,16.1-5.6,15.6-15.2c-0.5-8.8-7.5-10.7-13.7-12.3c-3.9-1-6.7-1.9-6.9-5.2c-0.1-2.8,2.1-4,4.9-4.1c2.9-0.1,6,1.1,9.3,3.4
			L462.8,96.8z"/>
		<path class="st0" d="M186.2,103.5h11v-9.2h-11V81h-11.7v13.3H168v9.2h6.5v20.8c0,7.1,0.7,14,12.8,14c3.7,0,7.4-0.9,10.7-2.7
			l-2.5-7.8c-1.6,0.8-3.4,1.2-5.1,1.4c-3.1,0-4.1-1.9-4.1-6.5L186.2,103.5z"/>
	</g>
</g>
</svg>
