<?xml version="1.0" encoding="utf-8"?>
<!-- Generator: Adobe Illustrator 26.2.1, SVG Export Plug-In . SVG Version: 6.00 Build 0)  -->
<svg version="1.1" id="图层_1" xmlns="http://www.w3.org/2000/svg" xmlns:xlink="http://www.w3.org/1999/xlink" x="0px" y="0px"
	 viewBox="0 0 84.2 84.2" style="enable-background:new 0 0 84.2 84.2;" xml:space="preserve">
<style type="text/css">
	.st0{fill:#FFFFFF;}
</style>
<g id="图层_2_00000164510278908665186800000011938890198479171720_">
	<g id="图层_1-2">
		<g id="图层_2-2">
			<g id="图层_1-2-2">
				<path class="st0" d="M67.6,8.6v19l-13.3,7.2v-33C39.4-2.7,23.2,1.4,12.2,12.5h32.2v10.2H30.2V48l-11.6,6.3V22.8H4.7
					c-9.8,19-3.8,42.3,13.9,54.3v-19l11.6-6.3v30.7c22.3,6.6,45.7-6.2,52.3-28.5C87.4,37.2,81.5,19.2,67.6,8.6z M42.1,77.4V65.6
					c7.6,0.3,12.5-4.6,12.2-14.5V38.7l13.3-7.2v19.4C68.4,69.3,59.3,78.2,42.1,77.4z"/>
			</g>
		</g>
	</g>
</g>
</svg>
