<?xml version="1.0" encoding="UTF-8"?>
<svg width="400px" height="296px" viewBox="0 0 400 296" version="1.1" xmlns="http://www.w3.org/2000/svg" xmlns:xlink="http://www.w3.org/1999/xlink">
    <title>content_left/Illustration/1</title>
    <defs>
        <filter x="-12.4%" y="-7.9%" width="124.7%" height="115.9%" filterUnits="objectBoundingBox" id="filter-1">
            <feOffset dx="0" dy="3" in="SourceAlpha" result="shadowOffsetOuter1"></feOffset>
            <feGaussianBlur stdDeviation="10" in="shadowOffsetOuter1" result="shadowBlurOuter1"></feGaussianBlur>
            <feColorMatrix values="0 0 0 0 0   0 0 0 0 0   0 0 0 0 0  0 0 0 0.5 0" type="matrix" in="shadowBlurOuter1" result="shadowMatrixOuter1"></feColorMatrix>
            <feMerge>
                <feMergeNode in="shadowMatrixOuter1"></feMergeNode>
                <feMergeNode in="SourceGraphic"></feMergeNode>
            </feMerge>
        </filter>
        <linearGradient x1="-0.000740850496%" y1="50.0032908%" x2="99.9997037%" y2="50.0032908%" id="linearGradient-2">
            <stop stop-color="#405AB1" offset="0%"></stop>
            <stop stop-color="#0B1066" offset="100%"></stop>
        </linearGradient>
    </defs>
    <g id="页面-1" stroke="none" stroke-width="1" fill="none" fill-rule="evenodd">
        <g id="登录界面_1920*1080" transform="translate(-1060.000000, -394.000000)" fill-rule="nonzero">
            <g id="content_left/Illustration/1" transform="translate(1080.000000, 260.000000)" filter="url(#filter-1)">
                <g id="网络信息" transform="translate(0.000000, 151.000000)">
                    <path d="M129.993117,20.8440731 C155.766365,26.4021131 221.643662,-25.2455569 265.419346,16.3010364 C309.19503,57.8476297 338.506102,62.0675626 355.310769,110.970481 C372.115436,159.8734 348.274284,271.096209 209.137256,251.187786 C183.732803,244.696335 156.76505,242.098449 121.589152,245.561209 C86.4132537,249.023969 11.7631965,260.711192 1.60010992,164.201034 C-8.56297662,67.690876 29.155325,-0.90179892 129.993117,20.8440731 Z" id="路径" fill="#F3F6FA"></path>
                    <path d="M40.2518228,143.754105 L40.2518228,105.614789 C43.9332491,104.616104 46.6421001,101.261046 46.6421001,97.2663064 C46.6421001,92.4850213 42.7648532,88.6045108 37.9803044,88.6045108 C33.1957556,88.6045108 29.3185088,92.4817576 29.3185088,97.2663064 C29.3185088,101.264309 32.0306234,104.619368 35.7120497,105.614789 L35.7120497,148.290614 L134.91474,148.290614 L134.91474,143.754105 L40.2518228,143.754105 Z" id="路径" fill="#6252DB"></path>
                    <path d="M326.672014,89.9589362 L326.672014,67.7006671 C322.990587,66.7019823 320.281736,63.3469235 320.281736,59.3521843 C320.281736,54.5708992 324.158983,50.6903886 328.943532,50.6903886 C333.728081,50.6903886 337.605328,54.5676355 337.605328,59.3521843 C337.605328,63.3501872 334.893213,66.7052459 331.215051,67.7006671 L331.215051,94.4954456 L232.005833,94.4954456 L232.005833,89.9589362 L326.672014,89.9589362 L326.672014,89.9589362 Z" id="路径" fill="#F3BE3E"></path>
                    <path d="M21.351876,125.092407 L21.351876,86.9530908 C25.0333024,85.954406 27.7421533,82.5993472 27.7421533,78.604608 C27.7421533,73.8233229 23.8649064,69.9428124 19.0803577,69.9428124 C14.2990726,69.9428124 10.418562,73.8200592 10.418562,78.604608 C10.418562,82.6026109 13.1306766,85.9576697 16.812103,86.9530908 L16.812103,129.628916 L116.014794,129.628916 L116.014794,125.092407 L21.351876,125.092407 Z" id="路径" fill="#F5634A"></path>
                    <g id="编组" transform="translate(154.223003, 35.596704)" fill="#F9BC00">
                        <path d="M50.6780023,10.6909861 C50.6290472,4.42799218 46.3993233,0.0905670043 40.3354136,0.0514028943 C30.2278095,-0.0171342981 20.1202055,-0.0171342981 10.0126014,0.0514028943 C4.5622628,0.0873033285 0.113872642,4.47694732 0.0681811808,9.92402228 C-0.0199380666,20.2633473 -0.0232017424,30.605936 0.0616538292,40.9485247 C0.104081615,46.0333317 4.26853198,50.3870752 9.31417481,50.5633137 C14.4740463,50.7460796 19.6469725,50.6024778 24.8133713,50.6024778 C24.8133713,50.6285873 24.8133713,50.651433 24.8133713,50.6775424 C29.8459595,50.6775424 34.8752839,50.6808061 39.9078721,50.6775424 C46.3079404,50.671015 50.6290472,46.503301 50.6780023,40.0705959 C50.7530668,30.2763048 50.7563305,20.4820136 50.6780023,10.6909861 Z M39.9307178,45.6351632 C30.1886454,45.6482179 20.4465731,45.6482179 10.7045007,45.6351632 C7.17646714,45.6286359 5.24437105,43.7422312 5.21499797,40.2174614 C5.17583386,35.2305647 5.20520694,30.2404043 5.20520694,25.2535077 C5.20520694,20.4950683 5.19541591,15.7366289 5.20520694,10.9749259 C5.21499797,6.96060463 7.09161157,5.07093632 11.0798234,5.06767265 C20.5934385,5.06149323 30.1070535,5.05788162 39.6206686,5.06767265 C43.804701,5.07093632 45.7531155,7.02587815 45.7531155,11.1968559 C45.7563791,20.7137346 45.7563791,30.233877 45.7531155,39.7507557 C45.7563791,43.5692564 43.7296365,45.6318996 39.9307178,45.6351632 Z" id="形状"></path>
                        <path d="M15.3846119,10.9553438 C13.067402,10.8215331 12.0164984,11.5036414 11.9022697,13.2203349 C11.7847774,15.0023019 12.7573528,15.8410666 15.1333088,15.9814046 C18.524268,16.1837525 21.7553071,17.0257809 24.6306055,18.8305936 C30.9099178,22.773114 34.3792052,28.4355916 34.7349459,35.9192003 C34.8328561,38.0014255 35.8707051,39.0980205 37.5841349,39.0294833 C39.1474356,38.9674735 40.0580011,37.733804 39.9829366,35.831081 C39.4346391,22.3325178 28.5437528,11.467741 15.3846119,10.9553438 Z" id="路径"></path>
                        <path d="M14.9962344,20.4624315 C13.2762773,20.4200038 12.1241997,21.2979326 11.9577522,22.773114 C11.7913048,24.2385045 12.7801985,25.2959355 14.5327925,25.5505022 C15.433567,25.6810492 16.3539236,25.7626411 17.2285887,26.0041531 C21.9511276,27.3030961 25.0646744,31.3533178 25.3616689,36.3761149 C25.4040967,37.1169693 25.7272006,37.9753161 26.2134883,38.5236136 C26.9249696,39.3297415 27.9432365,39.4602886 28.9712943,38.921782 C30.1788544,38.2918926 30.4660579,37.2801531 30.4856399,35.9681554 C29.9960886,34.0784871 29.6729846,32.126809 28.9908764,30.3089415 C26.8858055,24.6856281 20.9818159,20.6027696 14.9962344,20.4624315 Z" id="路径"></path>
                        <path d="M15.9394367,30.4492796 C13.2469042,30.4264339 11.1581517,32.4433855 11.17447,35.0477988 C11.1907884,37.5902023 13.2469042,39.5777809 15.8611085,39.5876108 C18.5634321,39.5973629 20.3617175,37.7566498 20.3519663,34.9890527 C20.3421354,32.2704107 18.5895415,30.4688616 15.9394367,30.4492796 Z" id="路径"></path>
                    </g>
                    <g id="编组" transform="translate(48.825499, 69.782892)">
                        <path d="M242.530278,-1.85518492e-14 L44.399046,-1.85518492e-14 C40.2900781,-1.85518492e-14 36.9611288,3.33221302 36.9611288,7.43791722 L36.9611288,133.889037 C36.9611288,137.998005 40.2933418,141.326955 44.399046,141.326955 L115.132692,141.326955 L115.132692,148.588633 L171.799896,148.588633 L171.799896,141.330218 L242.530278,141.330218 C246.639246,141.330218 249.968198,137.998005 249.968198,133.892301 L249.968198,7.4411809 C249.971459,3.33221302 246.639246,-1.85518492e-14 242.530278,-1.85518492e-14 Z" id="路径" fill="#6179EF"></path>
                        <path d="M239.498324,131.359689 L47.349409,131.359689 C47.0883149,131.359689 46.876176,131.14755 46.876176,130.886456 L46.876176,10.4437627 C46.876176,10.1826686 47.0883149,9.97052967 47.349409,9.97052967 L239.498324,9.97052967 C239.759418,9.97052967 239.971557,10.1826686 239.971557,10.4437627 L239.971557,130.886456 C239.971557,131.14755 239.759418,131.359689 239.498324,131.359689 Z" id="路径" fill="#F1F6FF"></path>
                        <path d="M284.1911,154.959328 L257.373476,154.959328 C261.129967,152.482199 263.613624,148.229629 263.613624,143.392861 L263.613624,143.392861 L22.7282385,143.392861 L22.7282385,143.392861 C22.7282385,148.229629 25.2118958,152.482199 28.9683867,154.959328 L2.15076237,154.959328 C0.96278437,154.959328 -9.27592462e-15,155.922113 -9.27592462e-15,157.110091 C-9.27592462e-15,158.298069 0.96278437,159.260853 2.15076237,159.260853 L284.194364,159.260853 C285.382342,159.260853 286.345126,158.298069 286.345126,157.110091 C286.345126,155.922113 285.382342,154.959328 284.1911,154.959328 Z" id="路径" fill="url(#linearGradient-2)"></path>
                    </g>
                    <rect id="矩形" fill="#D0E2FF" x="108.76617" y="96.9432025" width="16.631692" height="97.8319467"></rect>
                    <rect id="矩形" fill="#53C8CE" x="134.095558" y="118.088558" width="16.631692" height="76.686591"></rect>
                    <rect id="矩形" fill="#D0E2FF" x="159.424946" y="152.011205" width="16.631692" height="42.7639444"></rect>
                    <rect id="矩形" fill="#5B9BFD" x="184.757598" y="105.693117" width="16.631692" height="89.0820318"></rect>
                    <rect id="矩形" fill="#D0E2FF" x="210.086986" y="137.203908" width="16.631692" height="57.5712417"></rect>
                    <g id="编组" transform="translate(190.785607, 120.441668)">
                        <path d="M160.572851,84.6858605 L5.03258813,84.6858605 C2.2552,84.6858605 3.71036985e-14,82.4339242 3.71036985e-14,79.6532723 L3.71036985e-14,5.03258813 C3.71036985e-14,2.2552 2.25193632,3.71036985e-14 5.03258813,3.71036985e-14 L160.572851,3.71036985e-14 C163.350239,3.71036985e-14 165.605439,2.25193632 165.605439,5.03258813 L165.605439,79.656536 C165.602175,82.4339242 163.350239,84.6858605 160.572851,84.6858605 Z" id="路径" fill="#0B1066" opacity="0.19"></path>
                        <path d="M155.357497,76.9607398 L3.69774472,76.9607398 C1.65794732,76.9607398 0.00326367583,75.3060561 0.00326367583,73.2662587 L0.00326367583,3.69448104 C0.00326367583,1.65468365 1.65794732,0 3.69774472,0 L155.357497,0 C157.397294,0 159.051978,1.65468365 159.051978,3.69448104 L159.051978,73.2629951 C159.051978,75.3060561 157.397294,76.9607398 155.357497,76.9607398 Z" id="路径" fill="#F3BE3E"></path>
                        <rect id="矩形" fill="#FFFFFF" x="88.4162419" y="16.7622391" width="57.8910819" height="7.76102113"></rect>
                        <rect id="矩形" fill="#FFFFFF" x="88.4162419" y="34.2131137" width="57.8910819" height="7.76102113"></rect>
                        <rect id="矩形" fill="#FFFFFF" x="88.4162419" y="51.6607247" width="57.8910819" height="7.76102113"></rect>
                        <circle id="椭圆形" fill="#F5634A" cx="42.0720451" cy="38.0936243" r="26.0898246"></circle>
                        <path d="M67.1795033,27.4866779 C63.0411624,17.7087051 53.3610998,10.8451948 42.0753088,10.8451948 L42.0753088,38.0936243 L67.1795033,27.4866779 Z" id="路径" fill="#856CF2"></path>
                        <path d="M69.2388828,40.1138396 C69.2878379,39.4447861 69.3204747,38.7724689 69.3204747,38.0936243 C69.3204747,34.3306061 68.5567745,30.74709 67.1795033,27.4866779 L42.0753088,38.0936243 L69.2388828,40.1138396 Z" id="路径" fill="#5B9BFD"></path>
                    </g>
                    <path d="M304.172233,112.520727 L237.475753,112.520727 C235.553448,112.520727 233.996675,110.963954 233.996675,109.041649 L233.996675,42.3451695 C233.996675,40.4228645 235.553448,38.8660911 237.475753,38.8660911 L304.172233,38.8660911 C306.094538,38.8660911 307.651311,40.4228645 307.651311,42.3451695 L307.651311,109.041649 C307.651311,110.963954 306.094538,112.520727 304.172233,112.520727 Z" id="路径" fill="#0B1066" opacity="0.19"></path>
                    <path d="M298.310671,105.693117 L236.509705,105.693117 C235.122643,105.693117 233.996675,104.567149 233.996675,103.180087 L233.996675,41.3791215 C233.996675,39.9920592 235.122643,38.8660911 236.509705,38.8660911 L298.307407,38.8660911 C299.694469,38.8660911 300.820445,39.9920592 300.820445,41.3791215 L300.820445,103.176823 C300.823701,104.567149 299.697733,105.693117 298.310671,105.693117 Z" id="路径" fill="#856CF2"></path>
                    <path d="M273.93754,50.6055331 L273.93754,60.9905495 C273.93754,61.6367574 273.412088,62.1622092 272.76588,62.1622092 L269.215001,62.1622092 L269.215001,68.0498804 L288.248758,68.0498804 L288.248758,81.10132 L291.776792,81.10132 C292.423,81.10132 292.948451,81.6267718 292.948451,82.2729796 L292.948451,92.6514688 C292.948451,93.2976766 292.423,93.8231284 291.776792,93.8231284 L281.584332,93.8231284 C280.938124,93.8231284 280.412673,93.2976766 280.412673,92.6514688 L280.412673,82.3284621 C280.412673,81.6822543 280.938124,81.1568025 281.584332,81.1568025 L284.952446,81.1568025 L284.952446,71.3853571 L269.218264,71.3853571 L269.218264,81.0882653 L272.619015,81.0882653 C273.265222,81.0882653 273.790674,81.6137171 273.790674,82.2599249 L273.790674,92.6449414 C273.790674,93.2911493 273.265222,93.8166011 272.619015,93.8166011 L262.43961,93.8166011 C261.793402,93.8166011 261.26795,93.2911493 261.26795,92.6449414 L261.26795,82.3023527 C261.26795,81.6561449 261.793402,81.1306931 262.43961,81.1306931 L265.879524,81.1306931 L265.879524,71.3820934 L250.135552,71.3820934 L250.135552,81.1176384 L253.490611,81.1176384 C254.136818,81.1176384 254.66227,81.6430902 254.66227,82.289298 L254.66227,92.7559064 C254.66227,93.4021142 254.136818,93.927566 253.490611,93.927566 L243.043584,93.927566 C242.397376,93.927566 241.871925,93.4021142 241.871925,92.7559064 L241.871925,82.3023527 C241.871925,81.6561449 242.397376,81.1306931 243.043584,81.1306931 L246.835976,81.1306931 L246.835976,68.0270346 L265.87626,68.0270346 L265.87626,62.1981096 L262.286217,62.1981096 C261.640009,62.1981096 261.114557,61.6726578 261.114557,61.02645 L261.114557,50.6055331 C261.114557,49.9593252 261.640009,49.4338734 262.286217,49.4338734 L272.76588,49.4338734 C273.412088,49.4338734 273.93754,49.9593252 273.93754,50.6055331 Z" id="路径" fill="#FFFFFF"></path>
                    <circle id="椭圆形" fill="#F5634A" cx="85.786628" cy="66.2254856" r="37.5322721"></circle>
                    <path d="M115.244705,65.9546005 C115.198875,50.0409171 102.539076,37.2668899 86.5046367,36.6272095 L86.5046367,36.6011001 C86.4752636,36.6011001 86.4491542,36.5978364 86.4197811,36.5978364 C86.2076422,36.5978364 85.9987669,36.6076274 85.786628,36.6108911 C85.5744891,36.6076274 85.3656138,36.5978364 85.1534749,36.5978364 C85.1241018,36.5978364 85.0979924,36.6011001 85.0686193,36.6011001 L85.0686193,36.6272095 C69.0309163,37.2668899 56.3743814,50.0409171 56.3285508,65.9546005 C56.2797348,82.1979151 69.1581996,95.4288569 85.0686193,95.8335527 L85.0686193,95.8335527 C85.1077834,95.8335527 85.1502112,95.8368164 85.1893753,95.8368164 C85.313395,95.8400801 85.4374147,95.8498711 85.5614344,95.8498711 C85.6364989,95.8498711 85.7115634,95.8498711 85.786628,95.8466074 C85.8616925,95.8466074 85.9367571,95.8498711 86.0118216,95.8498711 C86.1358413,95.8498711 86.259861,95.8400801 86.3838807,95.8368164 C86.4230448,95.8368164 86.4654726,95.8335527 86.5046367,95.8335527 L86.5046367,95.8335527 C102.415056,95.4321206 115.293521,82.1979151 115.244705,65.9546005 Z M83.8512682,40.7818688 C83.8512682,44.41434 83.8512682,48.0468112 83.8512682,52.1231423 C81.2142181,51.5128349 78.6522326,50.9221096 75.466885,50.1877825 C78.3487108,46.659749 80.8617412,43.5821027 83.3747716,40.5011927 C83.5346917,40.5925756 83.6913481,40.6872222 83.8512682,40.7818688 Z M83.8577956,56.1929461 C83.8577956,58.6309119 83.8577956,61.2418526 83.8577956,63.9996587 C79.9413846,63.9996587 76.0184462,63.9996587 71.7071305,63.9996587 C72.5034674,60.4879435 73.2541128,57.1687851 73.9917035,53.908373 C77.5621649,54.734083 80.6332839,55.4455643 83.8577956,56.1929461 Z M75.688815,42.5083533 C75.7704069,42.642164 75.8487351,42.7792384 75.930327,42.9130491 C74.7651947,44.6591157 73.6033261,46.4051823 72.3533383,48.2817959 C71.5047826,47.7334983 70.6660179,47.1917281 69.4095027,46.3790729 C71.6679663,44.9854833 73.6783907,43.7485501 75.688815,42.5083533 Z M66.5733684,49.3653362 C66.8670992,49.4404008 66.929109,49.4436645 66.9748005,49.4730375 C68.107296,50.2497924 69.7750344,50.8111446 70.2156306,51.8783666 C70.6268538,52.8770514 69.7032335,54.4077154 69.4356121,55.7164494 C68.9558517,58.0728234 68.5772653,60.452043 68.0485498,62.7953623 C67.9343212,63.2947047 67.3762326,64.0486138 66.9878552,64.0747232 C64.8827843,64.2020066 62.7679224,64.1334694 60.4343941,64.1334694 C60.8815177,58.4024546 63.0094344,53.6179058 66.5733684,49.3653362 Z M60.3789116,68.2391736 C62.9147878,68.2391736 65.3462263,68.2391736 67.6569087,68.2391736 C68.5283102,72.1947487 69.396448,76.1340054 70.3004862,80.2299186 C69.174518,81.0066734 67.865784,81.9107116 66.4624034,82.8767597 C62.882151,78.6568268 60.8456173,73.862487 60.3789116,68.2391736 Z M75.708397,89.9262995 C73.6131171,88.6404112 71.5145736,87.3577866 69.1059808,85.8793414 C70.3788144,85.017731 71.2208428,84.4465877 72.1575177,83.8134346 C73.4629881,85.8042769 74.6999212,87.6939452 75.940118,89.5868772 C75.8617898,89.7011058 75.7834616,89.8120708 75.708397,89.9262995 Z M83.8447409,91.8551319 C80.450518,89.0189976 77.9048509,85.8499684 75.7475611,81.7932193 C78.4825215,81.1372205 81.0608254,80.5203857 83.8447409,79.8513322 C83.8447409,83.9831458 83.8447409,87.7722734 83.8447409,91.8551319 Z M83.9165417,75.8141652 C80.6496022,76.5680743 77.4381452,77.3121924 73.8709475,78.1379024 C73.1692572,74.9133906 72.4577759,71.6366601 71.7136578,68.2032731 C75.930327,68.2032731 79.8304196,68.2032731 83.9165417,68.2032731 C83.9165417,70.8337959 83.9165417,73.3468262 83.9165417,75.8141652 Z M104.996624,49.3653362 C108.557294,53.6179058 110.688475,58.4024546 111.135598,64.1302057 C108.80207,64.1302057 106.687208,64.1954792 104.582137,64.0714595 C104.19376,64.0486138 103.635671,63.2947047 103.521442,62.7920986 C102.992727,60.4487794 102.610877,58.0695597 102.13438,55.7131857 C101.866759,54.4044517 100.943139,52.8737878 101.354362,51.875103 C101.794958,50.807881 103.462696,50.2497924 104.595192,49.4697739 C104.640883,49.4436645 104.702893,49.4404008 104.996624,49.3653362 Z M95.8811773,42.5083533 C97.8916016,43.7452865 99.8987623,44.9854833 102.16049,46.3790729 C100.907238,47.1884645 100.06521,47.7334983 99.216654,48.2817959 C97.9666662,46.4084459 96.8015339,44.6591157 95.6396653,42.9130491 C95.7212572,42.7792384 95.8028491,42.6454277 95.8811773,42.5083533 Z M87.7187241,40.7818688 C87.8786442,40.6872222 88.0353006,40.5958393 88.1952208,40.5011927 C90.7082511,43.578839 93.2245452,46.659749 96.1031073,50.1877825 C92.9177597,50.9221096 90.3557742,51.5160986 87.7187241,52.1231423 C87.7187241,48.0468112 87.7187241,44.41434 87.7187241,40.7818688 Z M87.7121967,56.1929461 C90.9367085,55.4455643 94.0110911,54.734083 97.5782888,53.9051093 C98.3158795,57.1655215 99.0665249,60.4846798 99.8628619,63.996395 C95.5515461,63.996395 91.6286077,63.996395 87.7121967,63.996395 C87.7121967,61.2418526 87.7121967,58.6309119 87.7121967,56.1929461 Z M87.6567142,68.2032731 C91.7428364,68.2032731 95.6396653,68.2032731 99.8595982,68.2032731 C99.1154801,71.6333964 98.4039988,74.9133906 97.7023085,78.1379024 C94.1351108,77.3121924 90.9236537,76.571338 87.6567142,75.8141652 C87.6567142,73.3468262 87.6567142,70.8337959 87.6567142,68.2032731 Z M87.7252514,91.8551319 C87.7252514,87.7722734 87.7252514,83.9831458 87.7252514,79.8513322 C90.5124306,80.5203857 93.0907345,81.1372205 95.8224312,81.7932193 C93.6684051,85.8499684 91.1194743,89.0189976 87.7252514,91.8551319 Z M95.8615953,89.9262995 C95.7832671,89.8120708 95.7082025,89.6978422 95.6298743,89.5868772 C96.8700711,87.6972089 98.1070043,85.8042769 99.4124746,83.8134346 C100.345886,84.4465877 101.187914,85.017731 102.464011,85.8793414 C100.055419,87.3577866 97.9601388,88.6404112 95.8615953,89.9262995 Z M101.266242,80.2331822 C102.170281,76.1340054 103.038418,72.1980124 103.90982,68.2424372 C106.220502,68.2424372 108.651941,68.2424372 111.187817,68.2424372 C110.721111,73.8657507 108.687841,78.6568268 105.104325,82.883287 C103.704208,81.9139753 102.395474,81.0099371 101.266242,80.2331822 Z" id="形状" fill="#FFFFFF"></path>
                    <path d="M133.948692,188.779777 L30.1507461,188.779777 C26.7499959,188.779777 23.9954535,186.025234 23.9954535,182.624484 L23.9954535,162.095963 C23.9954535,158.695213 26.7499959,155.940671 30.1507461,155.940671 L133.948692,155.940671 C137.349442,155.940671 140.103985,158.695213 140.103985,162.095963 L140.103985,182.624484 C140.103985,186.025234 137.349442,188.779777 133.948692,188.779777 Z" id="路径" fill="#0B1066" opacity="0.19"></path>
                    <path d="M130.583842,183.727607 L28.7343108,183.727607 C26.1168428,183.727607 23.9921898,181.606217 23.9921898,178.985486 L23.9921898,160.679528 C23.9921898,158.06206 26.1135791,155.937407 28.7343108,155.937407 L130.583842,155.937407 C133.20131,155.937407 135.325963,158.058796 135.325963,160.679528 L135.325963,178.985486 C135.325963,181.606217 133.20131,183.727607 130.583842,183.727607 Z" id="路径" fill="#856CF2"></path>
                    <circle id="椭圆形" fill="#FFFFFF" cx="41.6356213" cy="169.834139" r="7.44770825"></circle>
                    <circle id="椭圆形" fill="#FFFFFF" cx="62.9441608" cy="169.834139" r="7.44770825"></circle>
                    <circle id="椭圆形" fill="#FFFFFF" cx="84.2494367" cy="169.834139" r="7.44770825"></circle>
                    <circle id="椭圆形" fill="#F9BC00" cx="121.148556" cy="169.834139" r="7.44770825"></circle>
                    <circle id="椭圆形" fill="#5B9BFD" cx="48.2543559" cy="221.10975" r="25.0846124"></circle>
                    <path d="M56.1916156,238.449659 C52.4971345,238.482296 49.6838459,237.15398 47.3209446,235.065227 C40.9535131,229.43865 36.0286263,222.823179 34.4326888,214.25603 C34.1063212,212.503436 34.4065794,210.584395 34.6807281,208.782846 C35.0723692,206.194751 37.1872312,204.941499 39.2172376,203.782895 C39.5892966,203.570756 40.6663096,203.96566 40.9959409,204.399729 C42.6506245,206.583128 44.2302436,208.838328 45.6793157,211.165329 C45.9469371,211.592871 45.6075148,212.523018 45.3268387,213.117007 C45.1440729,213.505385 44.5598749,213.707733 44.1551791,213.994936 C41.7661684,215.692048 41.5834025,215.972724 42.6767339,218.671784 C44.2955171,222.659996 46.7791745,226.0379 50.3235264,228.57704 C51.2993655,229.275466 52.2066674,229.308103 53.1596607,228.567249 C53.7993412,228.07117 54.465131,227.607728 55.1211299,227.134495 C55.9011484,226.576407 56.6517938,226.592725 57.2457828,227.376007 C58.8776208,229.526769 60.5420954,231.65795 62.0433863,233.896831 C62.3436445,234.343955 62.2392069,235.486242 61.8671478,235.881146 C60.254892,237.601103 58.2999501,238.753181 56.1916156,238.449659 Z" id="路径" fill="#FFFFFF"></path>
                    <circle id="椭圆形" fill="#856CF2" cx="194.209203" cy="246.194362" r="10.8092944"></circle>
                </g>
            </g>
        </g>
    </g>
</svg>